<?xml version="1.0" encoding="utf-8"?><svg id="Art" xmlns="http://www.w3.org/2000/svg" viewBox="0 0 432 58.9"><defs><style>.cls-1{fill:#e04117;}.cls-2{fill:#ff5621;}</style></defs><title>test2</title><path class="cls-1" d="M21.5,12.2A21.5,21.5,0,0,0,10,15.6V33.7h0a11.5,11.5,0,0,1,23,0h0v21a.5.5,0,0,0,.4.5h9.1a.5.5,0,0,0,.5-.5v-21h0A21.6,21.6,0,0,0,21.5,12.2Z"/><path class="cls-1" d="M115.2,12.2A21.5,21.5,0,0,0,93.7,33.7h10a11.5,11.5,0,0,1,22.9,0h10A21.5,21.5,0,0,0,115.2,12.2Z"/><path class="cls-1" d="M154.3,44.7c-.1,0-.1.2-.1.3H169l25.7-22.3c.1-.1.1-.2.1-.4H179.9Z"/><path class="cls-1" d="M422,33.7a11.5,11.5,0,0,1-23,0H389a21.5,21.5,0,0,0,21.5,21.5A20.7,20.7,0,0,0,422,51.8v2.9a.5.5,0,0,0,.5.5h9a.5.5,0,0,0,.5-.5v-21Z"/><path class="cls-1" d="M373,0h-9.1a.5.5,0,0,0-.5.5V15.6A21.2,21.2,0,0,0,352,12.2V22.3a11.5,11.5,0,0,1,0,22.9v10a21.4,21.4,0,0,0,21.4-21.4h0V.5A.5.5,0,0,0,373,0Z"/><rect class="cls-1" x="271.3" y="13.9" width="10" height="41.26" rx="0.5"/><path class="cls-1" d="M233.8,45.2a11.8,11.8,0,0,1-9.7-7.3H213.7a21.6,21.6,0,0,0,20.1,17.3h0a.5.5,0,0,0,.5-.5V45.6A.5.5,0,0,0,233.8,45.2Z"/><path class="cls-2" d="M340.5,33.7A11.4,11.4,0,0,1,352,22.3V12.2a21.5,21.5,0,0,0,0,43v-10A11.5,11.5,0,0,1,340.5,33.7Z"/><path class="cls-2" d="M292.8,12.2a21.3,21.3,0,0,0-11.5,3.4V33.2h0a11.5,11.5,0,0,1,11.5-10.9A11.7,11.7,0,0,1,304.2,34V54.7a.5.5,0,0,0,.5.5h9.1a.5.5,0,0,0,.4-.5V34.1C314.2,22.2,304.6,12.2,292.8,12.2Z"/><path class="cls-2" d="M234.8,12.2a21.6,21.6,0,0,0-21.5,20.7,20.7,20.7,0,0,0,.4,5h42.1l.3-.2c.1-.1.2-.2.2-.3V33.7A21.6,21.6,0,0,0,234.8,12.2ZM224.1,29.6a11.5,11.5,0,0,1,21.4,0Z"/><path class="cls-2" d="M194.3,13.2H154.6a.5.5,0,0,0-.4.5v8.2a.5.5,0,0,0,.4.5h40.2V13.7A.5.5,0,0,0,194.3,13.2Z"/><path class="cls-2" d="M194.3,45.1H154.2v8.7a.4.4,0,0,0,.4.4h39.7a.5.5,0,0,0,.5-.4V45.5A.5.5,0,0,0,194.3,45.1Z"/><path class="cls-2" d="M75.9,33.7A21.5,21.5,0,0,0,54.4,12.2,21,21,0,0,0,38,20h0a21.3,21.3,0,0,1,5,13.7h0a11.5,11.5,0,0,1,22.9,0h0v21a.5.5,0,0,0,.5.5h9.1a.5.5,0,0,0,.4-.5v-21Z"/><path class="cls-2" d="M10,14.4a.5.5,0,0,0-.5-.5H.5a.5.5,0,0,0-.5.5V54.7a.5.5,0,0,0,.5.5h9a.5.5,0,0,0,.5-.5V14.4Z"/><path class="cls-2" d="M115.2,45.2a11.5,11.5,0,0,1-11.5-11.5h-10a21.5,21.5,0,1,0,42.9,0h-10A11.5,11.5,0,0,1,115.2,45.2Z"/><path class="cls-2" d="M432,33.6a21.5,21.5,0,0,0-43,.1h10a11.5,11.5,0,1,1,23,0h10"/></svg>